<?xml version="1.0" standalone="no"?>
<!DOCTYPE svg PUBLIC "-//W3C//DTD SVG 20010904//EN"
 "http://www.w3.org/TR/2001/REC-SVG-20010904/DTD/svg10.dtd">
<svg version="1.0" xmlns="http://www.w3.org/2000/svg"
 width="700.000000pt" height="700.000000pt" viewBox="0 0 700.000000 700.000000"
 preserveAspectRatio="xMidYMid meet">
<metadata>
Created by potrace 1.14, written by Peter Selinger 2001-2017
</metadata>
<g transform="translate(0.000000,700.000000) scale(0.100000,-0.100000)"
fill="#000000" stroke="none">
<path d="M1511 4985 l0 -505 74 -1 c251 -2 327 -1 331 4 3 3 5 136 5 296 l-1
291 349 0 c270 0 350 3 353 13 2 6 4 100 4 207 l-1 195 -557 3 -556 2 -1 -505z"/>
<path d="M4383 5280 l-1 -210 351 -2 350 -3 -1 -287 c0 -162 3 -290 8 -293 8
-5 213 -8 363 -6 l37 1 0 505 0 505 -553 0 -554 0 0 -210z"/>
<path d="M3520 4937 c-3 -2 -34 -7 -70 -10 -175 -16 -342 -93 -478 -222 -79
-74 -134 -151 -179 -250 -59 -128 -67 -179 -68 -395 0 -107 3 -212 7 -232 l7
-38 -612 -2 -611 -3 0 -205 0 -205 728 -3 728 -2 41 -34 c56 -45 145 -101 182
-113 l30 -11 -25 -5 c-14 -3 -88 -14 -165 -26 -77 -11 -151 -23 -165 -26 -59
-12 -296 -79 -343 -97 -29 -11 -56 -21 -62 -22 -44 -12 -238 -97 -250 -110 -7
-6 -16 -22 -20 -35 -5 -17 -10 -578 -6 -672 1 -13 27 -15 206 -15 136 0 205 3
208 10 2 6 3 104 2 218 l0 208 25 9 c69 26 268 83 330 94 29 6 132 24 175 32
181 31 610 25 790 -11 20 -4 44 -9 100 -18 101 -18 355 -96 356 -110 1 -6 2
-105 2 -221 l2 -210 202 0 c128 0 204 4 206 10 2 5 3 155 2 331 l-1 321 -26
41 c-20 29 -45 48 -93 71 -92 44 -372 137 -486 162 -98 22 -103 23 -184 39
-47 9 -154 23 -182 23 -33 1 -1 25 42 33 13 2 69 38 146 94 l57 40 711 0 711
0 0 210 0 210 -593 2 c-411 2 -591 6 -590 14 16 91 18 355 3 446 -58 369 -352
647 -720 683 -36 4 -67 5 -70 2z m126 -440 c97 -36 178 -110 221 -203 33 -73
35 -82 37 -224 3 -198 -26 -284 -130 -379 -186 -170 -490 -112 -599 115 -34
72 -42 114 -42 242 -1 175 28 263 116 352 102 103 271 144 397 97z"/>
<path d="M1527 2518 c-9 -5 -12 -130 -11 -500 1 -271 2 -496 3 -500 1 -4 250
-6 553 -5 l553 2 0 205 0 205 -260 2 c-143 1 -302 2 -352 3 l-93 0 1 291 c0
160 -2 293 -4 296 -8 7 -377 9 -390 1z"/>
<path d="M5133 2522 l-53 -3 0 -295 0 -294 -47 0 c-27 -1 -184 -1 -349 -1
l-302 1 0 -210 0 -210 552 3 551 2 2 503 3 502 -28 1 c-167 3 -286 3 -329 1z"/>
</g>
</svg>
