<svg height='300px' width='300px'  fill="#000000" xmlns="http://www.w3.org/2000/svg" viewBox="0 0 48 48" x="0px" y="0px"><title>scan</title><g data-name="Layer 1"><path d="M13.17,30.71v4.07H18v2.85h-7.6V30.71Zm24.46,0v6.92H30.05V34.78h4.78V30.71ZM24.12,14.13a5.55,5.55,0,0,1,5.51,5.6v1A6.08,6.08,0,0,1,29.5,22h8.13v2.9H27.85A5.44,5.44,0,0,1,26,26a20.35,20.35,0,0,1,6.23,1.64,1.12,1.12,0,0,1,.65,1v4.24H30.06v-3a17.67,17.67,0,0,0-11.49-.23l-.71.24v3H15V28.4a.68.68,0,0,1,.26-.53l.13-.07A20.54,20.54,0,0,1,22.14,26a5.58,5.58,0,0,1-1.74-1.1h-10V22h8.38a6.24,6.24,0,0,1-.13-1.22v-1a5.56,5.56,0,0,1,5.51-5.6Zm0,2.91a2.67,2.67,0,0,0-2.64,2.69v1a2.65,2.65,0,1,0,5.3,0v-1A2.68,2.68,0,0,0,24.13,17ZM18,10.37v2.85H13.17v4.07h-2.8V10.37H18Zm19.65,0v6.92h-2.8V13.22H30.05V10.37Z"></path></g></svg>